<svg width="152" height="104" viewBox="0 0 152 104" fill="none" xmlns="http://www.w3.org/2000/svg">
<path d="M70.4369 65.7144V42.4763H48.7227V30.8572H70.4369V7.61914H81.5678V30.8572H103.282V42.4763H81.5678V65.7144H70.4369Z" fill="#FDD009"/>
<path d="M64.9608 97.3334C64.9608 97.3334 50.3629 87.2381 46.166 74.4762C46.166 74.2858 58.3917 81.7143 64.9608 97.3334Z" fill="#FDD009"/>
<path d="M44.3429 87.2383C44.3429 87.2383 32.4821 76.1907 30.8398 63.0479C30.8398 63.2383 41.9707 72.1907 44.3429 87.2383Z" fill="#FDD009"/>
<path d="M23.7225 66.6666C23.7225 66.6666 22.9926 51.8095 29.3792 40.1904C29.5617 40.1904 31.0215 53.5238 23.7225 66.6666Z" fill="#FDD009"/>
<path d="M20.2554 44.3814C20.2554 44.3814 19.1605 30.4766 27.1893 18.2861C27.1893 18.2861 27.7367 32.3814 20.2554 44.3814Z" fill="#FDD009"/>
<path d="M15.694 26.8571C15.694 26.8571 11.4971 13.5238 16.7888 0C16.9713 0 20.6208 13.7143 15.694 26.8571Z" fill="#FDD009"/>
<path d="M6.20312 22.4766C6.20312 22.4766 6.75054 38.2861 17.8814 47.2385C17.8814 47.2385 15.1443 33.9051 6.20312 22.4766Z" fill="#E29213"/>
<path d="M0 39.8096C0 39.8096 6.02161 52.5715 20.9844 60.762C20.9844 60.762 15.6927 48 0 39.8096Z" fill="#E29213"/>
<path d="M6.38672 60.5713C6.38672 60.5713 14.598 72.5713 30.1082 77.3332C30.1082 77.3332 22.4443 67.238 6.38672 60.5713Z" fill="#E29213"/>
<path d="M10.2188 77.9043C10.2188 77.9043 22.9919 85.9043 38.867 86.0948C38.867 86.0948 28.1011 78.2852 10.2188 77.9043Z" fill="#E29213"/>
<path d="M24.084 93.5241C24.084 93.5241 38.3169 97.5242 54.9219 93.7146C54.9219 93.7146 40.689 88.1908 24.084 93.5241Z" fill="#E29213"/>
<path d="M41.2383 103.619C41.2383 103.619 54.0114 97.7146 71.1638 98.286C71.3463 98.4765 60.033 105.334 41.2383 103.619Z" fill="#E29213"/>
<path d="M87.2227 97.3334C87.2227 97.3334 101.821 87.2381 106.017 74.4762C105.835 74.2858 93.7917 81.7143 87.2227 97.3334Z" fill="#FDD009"/>
<path d="M107.844 87.2383C107.844 87.2383 119.704 76.1907 121.347 63.0479C121.164 63.2383 110.216 72.1907 107.844 87.2383Z" fill="#FDD009"/>
<path d="M128.28 66.6666C128.28 66.6666 129.01 51.8095 122.624 40.1904C122.624 40.1904 121.164 53.5238 128.28 66.6666Z" fill="#FDD009"/>
<path d="M131.746 44.3814C131.746 44.3814 132.84 30.4766 124.812 18.2861C124.812 18.2861 124.264 32.3814 131.746 44.3814Z" fill="#FDD009"/>
<path d="M136.306 26.8571C136.306 26.8571 140.503 13.5238 135.212 0C135.212 0 131.562 13.7143 136.306 26.8571Z" fill="#FDD009"/>
<path d="M145.794 22.4766C145.794 22.4766 145.246 38.2861 134.115 47.2385C134.115 47.2385 137.035 33.9051 145.794 22.4766Z" fill="#E29213"/>
<path d="M152 39.8096C152 39.8096 145.978 52.5715 131.016 60.762C131.016 60.762 136.49 48 152 39.8096Z" fill="#E29213"/>
<path d="M145.612 60.5713C145.612 60.5713 137.401 72.5713 121.891 77.3332C121.891 77.3332 129.554 67.238 145.612 60.5713Z" fill="#E29213"/>
<path d="M141.781 77.9043C141.781 77.9043 129.008 85.9043 113.133 86.0948C113.133 86.0948 124.081 78.2852 141.781 77.9043Z" fill="#E29213"/>
<path d="M127.916 93.5241C127.916 93.5241 113.683 97.5242 97.0781 93.7146C97.0781 93.7146 111.493 88.1908 127.916 93.5241Z" fill="#E29213"/>
<path d="M110.762 103.619C110.762 103.619 97.9884 97.7146 80.8359 98.286C80.8359 98.4765 91.9668 105.334 110.762 103.619Z" fill="#E29213"/>
</svg>
